<svg width="33" height="32" viewBox="0 0 33 32" fill="none" xmlns="http://www.w3.org/2000/svg">
<rect x="1" y="0.5" width="31" height="31" rx="15.5" fill="#3366FF" fill-opacity="0.08"/>
<path d="M21.8 10.3C21.41 9.91004 20.78 9.91004 20.39 10.3L14.75 15.94L16.16 17.35L21.8 11.7C22.18 11.32 22.18 10.68 21.8 10.3ZM26.04 10.29L16.16 20.17L12.68 16.7C12.29 16.31 11.66 16.31 11.27 16.7C10.88 17.09 10.88 17.72 11.27 18.11L15.45 22.29C15.84 22.68 16.47 22.68 16.86 22.29L27.45 11.71C27.84 11.32 27.84 10.69 27.45 10.3H27.44C27.06 9.90004 26.43 9.90004 26.04 10.29ZM5.62001 18.12L9.80001 22.3C10.19 22.69 10.82 22.69 11.21 22.3L11.91 21.6L7.03001 16.7C6.64001 16.31 6.01001 16.31 5.62001 16.7C5.23001 17.09 5.23001 17.73 5.62001 18.12Z" fill="#AAAAB1"/>
<rect x="1" y="0.5" width="31" height="31" rx="15.5" stroke="#AAAAB1"/>
</svg>